<svg width="75" height="74" viewBox="0 0 75 74" fill="none" xmlns="http://www.w3.org/2000/svg">
<g clip-path="url(#clip0_73_514)">
<path d="M52.2672 22.8296H50.8033C47.0181 22.8296 43.9387 25.8681 43.9387 29.6028V35.0671C43.9387 35.6657 44.4305 36.151 45.0374 36.151C45.6442 36.151 46.136 35.6657 46.136 35.0671V29.6028C46.136 27.0635 48.2297 24.9976 50.8033 24.9976H52.2672C63.5905 24.9976 72.8027 34.087 72.8027 45.2592V66.7905C72.8027 69.3298 70.709 71.3956 68.1355 71.3956H58.6802C58.0733 71.3956 57.5815 71.8809 57.5815 72.4795C57.5815 73.0782 58.0733 73.5635 58.6802 73.5635H68.1355C71.9206 73.5635 75 70.5252 75 66.7905V45.2594C75 32.8916 64.8022 22.8296 52.2672 22.8296Z" fill="#2F73F2"/>
<path d="M58.1145 59.9731L57.7162 57.9374L61.8267 60.2654C63.4468 61.183 65.5217 60.6292 66.4518 59.0306C66.9025 58.2562 67.0206 57.3549 66.7841 56.4928C66.5479 55.6308 65.9854 54.9112 65.2005 54.4665L56.6338 49.6143L59.3309 48.8259C60.1985 48.5724 60.9142 48.0006 61.3459 47.2158C61.7776 46.431 61.8738 45.5275 61.6169 44.6716C61.0863 42.9043 59.197 41.8928 57.4066 42.4159L48.5139 45.0146L46.1363 43.6678V39.7912C46.1363 39.1926 45.6445 38.7072 45.0376 38.7072C44.4308 38.7072 43.939 39.1926 43.939 39.7912V42.4233L40.8883 40.6954V21.8938H42.2317C42.8386 21.8938 43.3304 21.4084 43.3304 20.8098C43.3304 20.2111 42.8386 19.7258 42.2317 19.7258H40.8883V14.6653H42.2317C42.8386 14.6653 43.3304 14.18 43.3304 13.5813C43.3304 12.9827 42.8386 12.4974 42.2317 12.4974H40.8883V7.43689H42.2317C42.8386 7.43689 43.3304 6.95156 43.3304 6.35291C43.3304 5.75426 42.8386 5.26892 42.2317 5.26892H40.8883V2.27352C40.8883 1.26064 40.0532 0.436523 39.0265 0.436523H35.9741C34.9475 0.436523 34.1123 1.2605 34.1123 2.27352V5.26892H32.7686C32.1617 5.26892 31.6699 5.75426 31.6699 6.35291C31.6699 6.95156 32.1617 7.43689 32.7686 7.43689H34.112V12.4974H32.7686C32.1617 12.4974 31.6699 12.9827 31.6699 13.5813C31.6699 14.18 32.1617 14.6653 32.7686 14.6653H34.112V19.7258H32.7686C32.1617 19.7258 31.6699 20.2111 31.6699 20.8098C31.6699 21.4084 32.1617 21.8938 32.7686 21.8938H34.112V40.6973L31.0613 42.4253V29.6031C31.0613 25.8684 27.9819 22.8299 24.1967 22.8299H22.7328C10.1978 22.8298 0 32.8917 0 45.2596V66.7908C0 70.5255 3.07939 73.5638 6.86455 73.5638H24.1966C27.9817 73.5638 31.0611 70.5255 31.0611 66.7908V65.226C31.0611 64.6273 30.5694 64.142 29.9625 64.142C29.3556 64.142 28.8639 64.6273 28.8639 65.226V66.7908C28.8639 69.3301 26.7702 71.3959 24.1966 71.3959H6.86455C4.29097 71.3957 2.19727 69.3299 2.19727 66.7907V45.2596C2.19727 34.0873 11.4095 24.9979 22.7328 24.9979H24.1967C26.7703 24.9979 28.864 27.0638 28.864 29.6031V43.6699L26.4926 45.0131L17.6106 42.4165C16.7427 42.1627 15.8271 42.2578 15.0319 42.6837C14.2367 43.1097 13.6572 43.8157 13.4001 44.6717C13.1432 45.5278 13.2393 46.4313 13.6711 47.2159C14.1029 48.0006 14.8185 48.5724 15.686 48.8259L18.3728 49.6112L7.58335 55.7225C6.79849 56.167 6.23613 56.8867 5.99971 57.7486C5.76343 58.6106 5.88149 59.5118 6.33237 60.2862C7.2627 61.8841 9.33765 62.4374 10.9563 61.5202L17.3013 57.9264L16.9015 59.9736C16.5479 61.7835 17.7527 63.5399 19.587 63.8888C20.4757 64.0579 21.3781 63.8753 22.1276 63.3748C22.8772 62.8743 23.3843 62.1157 23.5556 61.2389L25.0614 53.5317L28.8639 51.378V60.5015C28.8639 61.1002 29.3556 61.5855 29.9625 61.5855C30.5694 61.5855 31.0611 61.1002 31.0611 60.5015V50.1337L37.5 46.4869L43.9387 50.1337V66.7907C43.9387 70.5254 47.0181 73.5637 50.8033 73.5637H53.892C54.4989 73.5637 54.9907 73.0783 54.9907 72.4797C54.9907 71.8811 54.4989 71.3957 53.892 71.3957H50.8033C48.2297 71.3957 46.136 69.3299 46.136 66.7907V51.3783L49.9567 53.5424L51.4611 61.2395C51.6324 62.1162 52.1395 62.8747 52.8891 63.3752C53.4562 63.7539 54.1107 63.9505 54.7808 63.9505C54.9961 63.9505 55.213 63.9301 55.4292 63.889C56.318 63.7201 57.0867 63.2196 57.5938 62.48C58.1011 61.7403 58.286 60.8501 58.1145 59.9731ZM36.3092 2.60464H38.6908V5.26907H36.3092V2.60464ZM36.3092 7.43689H38.6908V12.4974H36.3092V7.43689ZM36.3092 14.6653H38.6908V19.7258H36.3092V14.6653ZM56.7299 54.8791C56.3571 54.668 55.8939 54.6908 55.5445 54.9371C55.1947 55.1835 55.0228 55.6084 55.1042 56.0247L55.957 60.3839C56.0172 60.692 55.9523 61.0049 55.7741 61.2649C55.5958 61.5248 55.3257 61.7008 55.0132 61.7603C54.7011 61.8199 54.3841 61.7555 54.1204 61.5796C53.857 61.4037 53.6788 61.1372 53.6186 60.829L52.0589 52.8477C51.9732 52.4086 51.6987 52.0291 51.3053 51.8062L38.2749 44.4259C38.0358 44.2906 37.7679 44.2228 37.4999 44.2228C37.2319 44.2228 36.964 44.2906 36.7252 44.4259L23.7135 51.7954C23.3205 52.0178 23.0458 52.3971 22.9597 52.8369L21.3983 60.8286C21.3381 61.1369 21.1598 61.4035 20.8963 61.5794C20.6326 61.7553 20.3153 61.8197 20.0032 61.7601C19.3585 61.6374 18.9349 61.0201 19.0592 60.3839L19.7235 56.9818C19.8401 56.3848 19.6009 55.7946 19.0995 55.4413C18.5977 55.088 17.9544 55.0569 17.4204 55.3594L9.86235 59.6401C9.29312 59.9623 8.56436 59.7679 8.2374 59.2064C8.07905 58.9344 8.0376 58.6177 8.12051 58.3148C8.20356 58.0118 8.40117 57.759 8.67715 57.6028L20.7643 50.7565C21.3051 50.4501 21.6078 49.8572 21.5353 49.246C21.4627 48.6348 21.0294 48.1269 20.4315 47.9522L16.31 46.7475C15.6807 46.5635 15.3204 45.9088 15.507 45.2877C15.5972 44.987 15.8008 44.739 16.0803 44.5892C16.3597 44.4395 16.6816 44.4061 16.9865 44.4953L26.1312 47.1688C26.5375 47.2879 26.9814 47.2365 27.3488 47.0283L35.5279 42.3954C36.01 42.1224 36.3095 41.612 36.3095 41.0635V21.8938H38.6911V41.0618C38.6911 41.6101 38.9905 42.1203 39.4727 42.3936L47.6582 47.0299C48.0255 47.2378 48.4689 47.2889 48.875 47.1704L58.0308 44.4948C58.6591 44.3109 59.3238 44.6664 59.5104 45.2876C59.6007 45.5884 59.567 45.9059 59.4152 46.1817C59.2635 46.4574 59.0121 46.6583 58.7071 46.7475L54.5754 47.9552C53.9773 48.1299 53.544 48.6378 53.4715 49.2491C53.399 49.8603 53.7016 50.4533 54.2426 50.7597L64.107 56.347C64.383 56.5034 64.5807 56.7563 64.6638 57.0592C64.7468 57.3623 64.7054 57.6791 64.547 57.9514C64.2201 58.5135 63.491 58.7079 62.921 58.3854L56.7299 54.8791Z" fill="#2F73F2"/>
</g>
<defs>
<clipPath id="clip0_73_514">
<rect width="75" height="74" fill="white"/>
</clipPath>
</defs>
</svg>
