<svg width="74" height="74" viewBox="0 0 74 74" fill="none" xmlns="http://www.w3.org/2000/svg">
<g clip-path="url(#clip0_73_519)">
<path d="M37.1 22.759C37.1067 22.7592 37.1133 22.7592 37.12 22.7592C37.7095 22.7592 38.1928 22.2865 38.2034 21.6947L38.3999 10.7197C38.4106 10.1211 37.934 9.62705 37.3356 9.61636C37.3288 9.61621 37.3223 9.61621 37.3157 9.61621C36.7261 9.61621 36.2428 10.089 36.2323 10.6807L36.0357 21.6557C36.025 22.2542 36.5017 22.7482 37.1 22.759Z" fill="#2F73F2"/>
<path d="M25.652 23.5202C25.8026 23.9758 26.2263 24.2644 26.6812 24.2644C26.7938 24.2644 26.9084 24.2468 27.0215 24.2095C27.5899 24.0216 27.8985 23.4087 27.7109 22.8401L24.6776 13.6561C24.4896 13.0875 23.8772 12.7787 23.3082 12.9667C22.7397 13.1546 22.4312 13.7676 22.6188 14.3361L25.652 23.5202Z" fill="#2F73F2"/>
<path d="M16.0637 28.2575C16.2696 28.5857 16.6222 28.7655 16.9828 28.7655C17.1797 28.7655 17.379 28.7119 17.5579 28.5996C18.0651 28.2813 18.2181 27.6123 17.8999 27.1053L12.4704 18.4538C12.1522 17.9463 11.4828 17.7937 10.9761 18.1118C10.4689 18.4301 10.3159 19.0991 10.6341 19.6061L16.0637 28.2575Z" fill="#2F73F2"/>
<path d="M7.88736 37.2397C8.14491 37.2397 8.40362 37.1482 8.61074 36.9626C9.05633 36.5629 9.09362 35.8776 8.69384 35.4319L1.8909 27.8466C1.49113 27.401 0.806194 27.3634 0.36017 27.7635C-0.0854197 28.1633 -0.122709 28.8485 0.277065 29.2942L7.08001 36.8795C7.29406 37.1181 7.58991 37.2397 7.88736 37.2397Z" fill="#2F73F2"/>
<path d="M46.9629 24.1327C47.0901 24.1813 47.2208 24.2043 47.3494 24.2043C47.7859 24.2043 48.1972 23.9388 48.3623 23.5066L51.8231 14.4422C52.0367 13.883 51.7563 13.2564 51.197 13.0428C50.6381 12.8292 50.0112 13.1095 49.7976 13.6689L46.3368 22.7334C46.1233 23.2926 46.4036 23.9191 46.9629 24.1327Z" fill="#2F73F2"/>
<path d="M56.2478 28.319C56.436 28.4487 56.6506 28.5112 56.8631 28.5112C57.2072 28.5112 57.5456 28.3477 57.756 28.0433L63.564 19.6374C63.9044 19.1448 63.7808 18.4697 63.2884 18.1292C62.7954 17.789 62.1206 17.9124 61.7802 18.4048L55.9722 26.8108C55.6318 27.3035 55.7553 27.9786 56.2478 28.319Z" fill="#2F73F2"/>
<path d="M72.9161 27.228C72.6029 27.228 72.3207 27.3611 72.1229 27.5737L65.0961 34.7847C64.6781 35.2135 64.6871 35.8998 65.1159 36.3175C65.3266 36.5228 65.5996 36.6252 65.8722 36.6252C66.1543 36.6252 66.4362 36.5156 66.6486 36.2977L73.6923 29.0694C73.8896 28.867 74 28.5937 74 28.3111C74 27.7123 73.5147 27.228 72.9161 27.228Z" fill="#2F73F2"/>
<path d="M61.1183 36.8057C60.656 36.4259 59.9728 36.4924 59.5927 36.9551C59.2126 37.4176 59.2795 38.1007 59.7421 38.4808C62.4482 40.7043 64.8085 43.3047 66.7571 46.2101C66.7942 46.2653 66.7942 46.3396 66.7572 46.3945C62.7095 52.4289 57.0165 56.9821 50.492 59.6197C53.8768 56.1687 55.8778 51.4693 55.8778 46.4718C55.8778 41.1568 53.6406 36.2329 49.925 32.7593C51.9581 33.5409 53.9224 34.5095 55.7912 35.6604C56.3007 35.9748 56.9686 35.8158 57.2825 35.3059C57.5965 34.7963 57.4377 34.1285 56.9279 33.8146C50.9842 30.1541 44.1345 28.2192 37.1194 28.2192C24.4826 28.2192 12.7301 34.4933 5.68122 45.0024C5.15151 45.7921 5.15151 46.8125 5.68122 47.602C7.0771 49.6833 8.68848 51.6355 10.4705 53.4044C10.682 53.6141 10.9581 53.719 11.2341 53.719C11.5129 53.719 11.7914 53.6122 12.0034 53.3986C12.4252 52.9737 12.4226 52.2873 11.9977 51.8656C10.3173 50.1977 8.79789 48.3569 7.48164 46.3943C7.44464 46.3393 7.44464 46.2654 7.48164 46.2102C11.6473 39.9995 17.5553 35.3582 24.3185 32.7588C20.6013 36.2336 18.3609 41.1588 18.3609 46.4719C18.3609 51.4763 20.3709 56.1875 23.7692 59.6424C20.8917 58.4789 18.159 56.9301 15.6255 55.0136C15.1483 54.6526 14.4683 54.7467 14.1071 55.2242C13.7459 55.7016 13.8401 56.3814 14.3177 56.7426C20.9264 61.7418 28.8108 64.3841 37.1192 64.3841C49.7565 64.3841 61.509 58.1106 68.5577 47.6022C69.0871 46.8126 69.0871 45.7925 68.5575 45.0028C66.491 41.9212 63.988 39.1636 61.1183 36.8057ZM30.1811 61.5454C24.3156 58.8398 20.5292 52.9318 20.5292 46.4718C20.5292 39.4172 24.9917 33.1337 31.6408 30.8085C33.4379 30.5301 35.2686 30.3872 37.1195 30.3872C38.962 30.3872 40.7922 30.5291 42.5952 30.8079C49.2478 33.1337 53.71 39.4122 53.71 46.4718C53.71 52.9274 49.9357 58.8214 44.0837 61.5317C41.8137 61.9823 39.4832 62.216 37.1195 62.216C34.7631 62.216 32.4433 61.9888 30.1811 61.5454Z" fill="#2F73F2"/>
<path d="M44.6746 51.0502C45.5691 49.6297 46.0418 47.9877 46.0418 46.3017C46.0418 41.3819 42.0393 37.3794 37.1195 37.3794C32.1996 37.3794 28.1971 41.3819 28.1971 46.3017C28.1971 51.2216 32.1996 55.2241 37.1195 55.2241C38.1783 55.2241 39.215 55.0402 40.2008 54.6776C40.7625 54.4708 41.0505 53.8479 40.8438 53.2859C40.6371 52.7243 40.0147 52.4367 39.4521 52.6429C38.7069 52.9172 37.9219 53.0561 37.1193 53.0561C33.3949 53.0561 30.365 50.026 30.365 46.3017C30.365 42.5775 33.3951 39.5474 37.1193 39.5474C40.8438 39.5474 43.8737 42.5775 43.8737 46.3017C43.8737 47.5784 43.5162 48.8211 42.8399 49.8951C42.5209 50.4017 42.673 51.071 43.1797 51.39C43.6863 51.7088 44.3556 51.557 44.6746 51.0502Z" fill="#2F73F2"/>
</g>
<defs>
<clipPath id="clip0_73_519">
<rect width="74" height="74" fill="white"/>
</clipPath>
</defs>
</svg>
