<svg width="74" height="74" viewBox="0 0 74 74" fill="none" xmlns="http://www.w3.org/2000/svg">
<g clip-path="url(#clip0_71_469)">
<path d="M64.7212 28.7692H49.893C45.7781 24.7014 40.5196 21.7888 34.6483 20.5636C34.7667 15.7543 38.713 11.8776 43.5504 11.8776H48.1069C48.7057 11.8776 49.1909 11.3922 49.1909 10.7936C49.1909 10.1949 48.7057 9.70961 48.1069 9.70961H43.5504C37.6414 9.70961 32.7987 14.3611 32.4908 20.1948C31.1482 20.0141 29.7791 19.919 28.3878 19.919H27.8562C28.3074 11.6534 35.174 5.06712 43.5503 5.06712H56.0337C56.6877 5.06712 57.2199 5.59929 57.2199 6.25329V8.52359C57.2199 9.17759 56.6877 9.70975 56.0337 9.70975H52.8311C52.2323 9.70975 51.7471 10.1951 51.7471 10.7937C51.7471 11.3924 52.2323 11.8777 52.8311 11.8777H56.0337C57.8833 11.8777 59.3879 10.373 59.3879 8.52359V6.25315C59.3879 4.40358 57.8833 2.89901 56.0337 2.89901H43.5503C33.9781 2.89901 26.1387 10.4573 25.6854 19.9189H20.5707C17.9003 19.9189 15.7279 17.7464 15.7279 15.0762V3.35428C15.728 1.50472 14.2234 0 12.3739 0H10.1037C8.25416 0 6.74945 1.50472 6.74945 3.35428V30.558C6.74945 31.1566 7.23464 31.6419 7.83343 31.6419C8.43223 31.6419 8.91742 31.1566 8.91742 30.558V3.35428C8.91742 2.70028 9.44958 2.16797 10.1037 2.16797H12.3739C13.0279 2.16797 13.5601 2.70013 13.5601 3.35428V15.0762C13.5601 17.6455 14.9503 19.8952 17.0171 21.1159L20.4101 26.3269L19.4397 36.3671C19.2004 38.8436 18.0827 41.1592 16.2928 42.8873L13.8334 45.262C13.4028 45.6778 13.3907 46.364 13.8065 46.7947C14.0192 47.015 14.3027 47.1259 14.5864 47.1259C14.8574 47.1259 15.1288 47.0248 15.3392 46.8216L17.7986 44.447C17.8286 44.4179 17.8568 44.3874 17.8866 44.3582L18.7461 50.5896C18.8211 51.1323 19.2857 51.5255 19.8185 51.5255C19.868 51.5255 19.9178 51.5222 19.968 51.5153C20.5611 51.4335 20.9757 50.8864 20.8937 50.2933L19.7528 42.0216C20.7701 40.3826 21.4095 38.521 21.5974 36.5757L22.3065 29.2395L27.899 37.8285C29.5335 40.3387 31.7539 42.3422 34.3512 43.6954L37.5381 52.7672C37.6947 53.2132 38.1135 53.4922 38.5608 53.4922C38.6799 53.4922 38.8013 53.4724 38.9201 53.4306C39.4848 53.2322 39.7819 52.6134 39.5835 52.0486L37.0436 44.8189C37.4936 44.9632 37.9509 45.091 38.4157 45.1994L42.6988 46.1977C42.7815 46.2169 42.8643 46.2262 42.9459 46.2262C43.4383 46.2262 43.8839 45.8882 44.0006 45.388C44.1364 44.805 43.774 44.2222 43.1908 44.0862L38.9076 43.088C35.1086 42.2026 31.8443 39.9145 29.7156 36.6455L29.4119 36.1789L39.3139 36.7812C39.3363 36.7825 39.3586 36.7832 39.3807 36.7832C39.9493 36.7832 40.4267 36.3402 40.4616 35.765C40.4979 35.1675 40.0431 34.6535 39.4455 34.6173L35.5038 34.3775L38.59 32.0339C39.0668 31.6719 39.1597 30.9918 38.7977 30.515C38.4356 30.0382 37.756 29.9451 37.2788 30.3072L32.1848 34.1756L27.9395 33.9174L20.2306 22.0782C20.3433 22.0835 20.4566 22.0868 20.5707 22.0868H28.3878C44.0694 22.0868 56.8274 34.8446 56.8274 50.5263V51.8766C56.8274 52.4753 57.3125 52.9606 57.9113 52.9606C58.51 52.9606 58.9953 52.4753 58.9953 51.8766V50.5263C58.9953 48.5759 58.8097 46.6684 58.4594 44.8186H62.5511C63.9457 44.8186 65.0804 43.6839 65.0804 42.2893V40.0668C65.0804 38.6722 63.9457 37.5375 62.5511 37.5375H56.0983C55.8616 37.0344 55.6123 36.5382 55.3494 36.0504H64.7212C66.1158 36.0504 67.2505 34.9157 67.2505 33.5211V31.2987C67.2505 29.9038 66.1158 28.7692 64.7212 28.7692ZM62.5511 39.7053C62.7504 39.7053 62.9124 39.8675 62.9124 40.0667V42.2891C62.9124 42.4883 62.7504 42.6505 62.5511 42.6505H57.9663C57.699 41.6476 57.3819 40.6652 57.0178 39.7053H62.5511ZM65.0825 33.521C65.0825 33.7202 64.9205 33.8823 64.7212 33.8823H54.0622C53.395 32.8566 52.6682 31.8733 51.8866 30.9372H64.7212C64.9205 30.9372 65.0825 31.0994 65.0825 31.2985V33.521Z" fill="#2F73F2"/>
<path d="M6.74945 70.7481C6.74945 72.5413 8.20835 74.0001 10.0014 74.0001H12.4671C14.2602 74.0001 15.7191 72.5413 15.7191 70.7481V63.1847C21.2617 68.7301 28.9156 72.1648 37.3568 72.1648H50.4728C55.1722 72.1648 58.9955 68.3416 58.9955 63.6421V56.601C58.9955 56.0024 58.5101 55.517 57.9115 55.517C57.3127 55.517 56.8275 56.0024 56.8275 56.601V63.6421C56.8275 67.1461 53.9768 69.9969 50.4728 69.9969H37.3568C21.6753 69.9969 8.91742 57.239 8.91742 41.5575V35.2822C8.91742 34.6836 8.43223 34.1982 7.83343 34.1982C7.23464 34.1982 6.74945 34.6836 6.74945 35.2822V70.7481ZM13.5511 70.7481C13.5511 71.3459 13.0649 71.8321 12.4671 71.8321H10.0014C9.40362 71.8321 8.91742 71.3459 8.91742 70.7481V52.8708C10.0643 55.7436 11.635 58.4026 13.5511 60.7717V70.7481Z" fill="#2F73F2"/>
</g>
<defs>
<clipPath id="clip0_71_469">
<rect width="74" height="74" fill="white"/>
</clipPath>
</defs>
</svg>
