<svg width="74" height="74" viewBox="0 0 74 74" fill="none" xmlns="http://www.w3.org/2000/svg">
<g clip-path="url(#clip0_73_387)">
<path d="M32.6756 39.7249C35.7491 37.6063 37.5839 34.1158 37.5839 30.3879C37.5839 27.2622 36.3391 24.3512 34.0785 22.1916C31.8191 20.0329 28.8515 18.9228 25.7198 19.0659C19.8557 19.3337 15.1134 24.1419 14.9233 30.0125C14.8285 32.9417 15.8484 35.7557 17.7954 37.9363C18.3756 38.586 18.5244 39.5034 18.1838 40.3303C16.3232 44.8481 17.1112 49.9824 20.2402 53.7295C24.8712 59.2769 33.1549 60.0241 38.7059 55.3945C38.7312 55.3734 38.7556 55.351 38.7789 55.3277C38.8166 55.2899 38.8597 55.2821 38.8892 55.2821C38.9187 55.2821 38.9617 55.29 38.9996 55.3276L42.7821 59.1075C43.5207 59.8453 44.5022 60.2518 45.5463 60.2518H45.5476C46.5923 60.2513 47.5741 59.8443 48.3122 59.1053V59.1055C49.8355 57.5808 49.8351 55.1007 48.3112 53.5766L41.4146 46.6801L41.5055 46.5892C42.0267 46.3071 42.5532 46.1133 43.1624 45.8903C44.7855 45.295 47.0079 44.4794 49.593 41.7549C52.1794 39.0291 52.8769 36.765 53.3874 35.108C53.8141 33.7249 54.096 32.8111 55.5172 31.3129C56.9385 29.8158 57.8361 29.4864 59.1989 28.9863C60.2636 28.5968 61.5888 28.1121 63.0876 27.0688C63.2207 26.9761 63.3499 26.9966 63.415 27.0171C63.4897 27.0407 63.5888 27.0966 63.638 27.2298C64.7611 30.2815 65.3442 33.4901 65.3705 36.7666C65.426 43.6284 63.0214 50.261 58.5998 55.4432C58.2111 55.8986 58.2653 56.5828 58.7207 56.9713C58.9248 57.1455 59.175 57.2308 59.4237 57.2308C59.7302 57.2308 60.0345 57.1017 60.2489 56.8504C65.0093 51.2712 67.5981 44.1325 67.5385 36.7491C67.51 33.2223 66.8821 29.7675 65.6724 26.4809C65.401 25.7433 64.8155 25.1852 64.0662 24.9491C63.3102 24.711 62.5023 24.8351 61.8493 25.2895C60.5807 26.1723 59.4508 26.5857 58.4477 26.9526C56.9819 27.4906 55.7157 27.9553 53.9447 29.8206C52.1742 31.6872 51.7763 32.9761 51.3144 34.4735C50.8188 36.0821 50.2573 37.9054 48.0205 40.2628C46.45 41.918 45.0997 42.7341 43.8858 43.275C43.9301 43.0407 43.9534 42.8008 43.9534 42.5571C43.9534 41.7607 43.7107 41.0019 43.262 40.3631C44.0916 39.9265 44.9332 39.3173 45.9234 38.2735C47.6971 36.4048 48.0935 35.1146 48.5531 33.6184C49.0489 32.0108 49.6105 30.1888 51.8479 27.8308C54.0874 25.4708 55.8781 24.8159 57.4587 24.2379C58.7505 23.7643 59.916 23.0999 61.0221 22.2065C62.084 21.349 62.2758 19.8226 61.4587 18.7314C56.1027 11.5776 47.947 7.13047 39.0824 6.53052C38.4859 6.48861 37.9681 6.94142 37.9278 7.53877C37.8873 8.13612 38.3387 8.65311 38.936 8.69343C47.1698 9.25074 54.7464 13.383 59.7234 20.0307C59.836 20.1812 59.8076 20.4007 59.6601 20.5198C58.7417 21.2614 57.7775 21.812 56.7131 22.202C55.0891 22.7959 52.8648 23.6093 50.2751 26.3387C47.6882 29.0648 46.9906 31.3276 46.4798 32.9842C46.0549 34.3675 45.7741 35.2815 44.3506 36.7811C43.1598 38.0366 42.3303 38.475 41.238 38.8951C39.9302 38.5003 38.4505 38.8179 37.4173 39.8494L34.8829 42.3854L34.8688 42.3996C34.5657 42.7003 34.159 42.8543 33.727 42.8366C33.2845 42.8174 32.8669 42.6126 32.5808 42.2747L32.3757 42.0325C32.0839 41.6877 31.956 41.2514 32.0156 40.8036C32.0745 40.3609 32.309 39.9776 32.6756 39.7249ZM30.7213 43.434C31.4611 44.336 32.4411 44.9513 33.6329 45.003C34.6621 45.0472 35.669 44.6599 36.3992 43.9355L38.95 41.3832C39.598 40.7361 40.6516 40.7357 41.2985 41.3825C42.9543 43.0382 39.8422 45.1883 38.7668 46.2622C36.5846 48.4444 33.6836 49.6461 30.5977 49.6461C29.9991 49.6461 29.5137 50.1314 29.5137 50.73C29.5137 51.3288 29.9991 51.814 30.5977 51.814C34.0647 51.814 37.335 50.5361 39.8721 48.2042L46.778 55.1101C47.457 55.7889 47.4571 56.8942 46.7784 57.5735C46.4496 57.9026 46.0121 58.0839 45.5467 58.0841C45.5464 58.0841 45.5463 58.0841 45.5461 58.0841C45.0809 58.0841 44.6435 57.903 44.3145 57.5743L40.5318 53.7944C40.0928 53.3559 39.5097 53.1144 38.8892 53.1144C38.8888 53.1144 38.8882 53.1144 38.8876 53.1144C38.2861 53.1147 37.7195 53.3422 37.2857 53.756C32.6525 57.5911 25.761 56.9604 21.9042 52.3401C19.2926 49.2128 18.6352 44.9273 20.1883 41.156C20.8479 39.5542 20.5506 37.7672 19.4124 36.4924C17.8381 34.7291 17.0132 32.4528 17.0901 30.0826C17.2437 25.3358 21.0777 21.448 25.8186 21.2315C28.3518 21.1173 30.7538 22.0136 32.5808 23.7591C34.4091 25.5057 35.4161 27.8599 35.4161 30.3877C35.4161 33.4026 33.9318 36.2261 31.4452 37.9399C30.5808 38.5357 30.0054 39.4753 29.8665 40.5179C29.7272 41.5649 30.0387 42.6278 30.7213 43.434Z" fill="#2F73F2"/>
<path d="M37 0C31.7495 0 26.6725 1.08268 21.9102 3.21828C17.3114 5.28045 13.2388 8.21357 9.80529 11.936C9.39945 12.3761 9.42705 13.0619 9.86715 13.4677C10.3072 13.8737 10.9929 13.8458 11.3989 13.4059C14.6325 9.89996 18.4675 7.13796 22.7972 5.19648C27.2787 3.18691 32.0573 2.16797 37 2.16797C56.2065 2.16797 71.832 17.7935 71.832 37C71.832 56.2065 56.2065 71.832 37 71.832C17.7935 71.832 2.16797 56.2065 2.16797 37C2.16797 29.7862 4.3634 22.8605 8.51723 16.9716C8.86222 16.4823 8.74544 15.8061 8.2562 15.4609C7.76711 15.1159 7.0907 15.233 6.74556 15.722C2.33259 21.9784 0 29.3364 0 37C0 57.4019 16.5981 74 37 74C57.4019 74 74 57.4019 74 37C74 16.5981 57.4019 0 37 0Z" fill="#2F73F2"/>
<path d="M34.1783 6.59603C26.9651 7.29874 20.1335 10.7014 14.9419 16.1773C9.71858 21.6868 6.71233 28.7236 6.47674 35.9915C6.33741 40.2939 7.07915 44.4801 8.68142 48.4345C10.2247 52.2429 12.4879 55.6556 15.4086 58.578C18.3292 61.5004 21.7407 63.7659 25.5481 65.3114C29.1944 66.7916 33.038 67.5397 36.9887 67.5397C37.3213 67.5397 37.6552 67.5343 37.989 67.5238C44.9832 67.3013 51.4802 64.8076 56.7778 60.3122C57.2342 59.9249 57.2903 59.2408 56.903 58.7844C56.5156 58.328 55.8316 58.2717 55.3751 58.6592C50.455 62.8342 44.4191 65.1501 37.9201 65.3569C33.9224 65.4836 30.0342 64.793 26.3634 63.3027C22.8263 61.8668 19.6564 59.7616 16.942 57.0455C14.2278 54.3291 12.1246 51.1582 10.691 47.6202C9.20303 43.9483 8.5142 40.0594 8.6437 36.0616C8.86194 29.3247 11.6575 22.7926 16.5153 17.6687C21.3476 12.5717 27.6951 9.40557 34.3885 8.75359C34.9844 8.69563 35.4203 8.16549 35.3623 7.56959C35.3044 6.97398 34.7752 6.54096 34.1783 6.59603Z" fill="#2F73F2"/>
</g>
<defs>
<clipPath id="clip0_73_387">
<rect width="74" height="74" fill="white"/>
</clipPath>
</defs>
</svg>
